<?xml version="1.0" encoding="UTF-8"?>
<svg id="Layer_1" xmlns="http://www.w3.org/2000/svg" version="1.1"
  xmlns:xlink="http://www.w3.org/1999/xlink" viewBox="0 0 2000 2000">
  <!-- Generator: Adobe Illustrator 30.0.0, SVG Export Plug-In . SVG Version: 2.1.1 Build 123)  -->
  <defs>
    <style>
      .st0 {
      fill: #f1f3f3;
      }

      .st1 {
      fill: url(#linear-gradient2);
      }

      .st2 {
      fill: #361e12;
      }

      .st3 {
      fill: #9b6e46;
      }

      .st4 {
      fill: url(#linear-gradient1);
      }

      .st5 {
      fill: #fbfcf8;
      }

      .st6 {
      fill: #bbb9b5;
      }

      .st7 {
      fill: url(#linear-gradient4);
      }

      .st8 {
      fill: url(#linear-gradient5);
      }

      .st9 {
      fill: url(#linear-gradient3);
      }

      .st10 {
      fill: #714c30;
      }

      .st11 {
      fill: #d5a071;
      }

      .st12 {
      fill: url(#linear-gradient);
      }

      .st13 {
      fill: #7c4c2c;
      }

      .st14 {
      fill: #a97248;
      }
    </style>
    <linearGradient id="linear-gradient" x1="347.06" y1="1062.75" x2="1385.49" y2="1062.75"
      gradientUnits="userSpaceOnUse">
      <stop offset="0" stop-color="#ac7b50" />
      <stop offset=".47" stop-color="#b38458" />
      <stop offset="1" stop-color="#986732" />
    </linearGradient>
    <linearGradient id="linear-gradient1" x1="332.87" y1="680.6" x2="1257.67" y2="1214.54"
      gradientUnits="userSpaceOnUse">
      <stop offset="0" stop-color="#ba8456" />
      <stop offset=".22" stop-color="#c38f5f" />
      <stop offset=".49" stop-color="#bc875b" />
      <stop offset=".74" stop-color="#a06b3d" />
      <stop offset="1" stop-color="#a2693c" />
    </linearGradient>
    <linearGradient id="linear-gradient2" x1="1752.73" y1="690.35" x2="1435.81" y2="1239.26"
      gradientUnits="userSpaceOnUse">
      <stop offset="0" stop-color="#e6e4e5" />
      <stop offset="1" stop-color="#afb0ab" />
    </linearGradient>
    <linearGradient id="linear-gradient3" x1="1679.49" y1="1111.52" x2="1470.38" y2="749.33"
      gradientUnits="userSpaceOnUse">
      <stop offset="0" stop-color="#80807f" />
      <stop offset="1" stop-color="#bababb" />
    </linearGradient>
    <linearGradient id="linear-gradient4" x1="587.65" y1="833.71" x2="1235.9" y2="1207.98"
      gradientUnits="userSpaceOnUse">
      <stop offset="0" stop-color="#fff" />
      <stop offset="1" stop-color="#8b8c86" />
    </linearGradient>
    <linearGradient id="linear-gradient5" x1="712.39" y1="904.31" x2="1116.68" y2="1137.73"
      gradientUnits="userSpaceOnUse">
      <stop offset=".26" stop-color="#8c8b87" />
      <stop offset="1" stop-color="#eff1ee" />
    </linearGradient>
  </defs>
  <!-- Background with rounded corners - solid beige color -->
  <rect width="2000" height="2000" rx="400" ry="400" fill="#e4cdb7" />
  <g transform="translate(120, 0)">
    <path class="st2"
      d="M1864.58,793.7c-19.43-125.18-150.96-208.9-273.14-186.93-14.11,2.54-28.43,7.38-42.61,10.3,1.91-24.69,1.8-52.16-2.55-76.47-7.87-43.96-55.74-64.15-91.13-81.32-39.64-19.25-81.69-27.42-124.47-36.27-80.27-16.96-161.62-28.33-243.46-34.02-59.2-3.81-139.48-7.18-198.51-5.48-61.89.86-123.75,3.8-185.44,8.8-74.78,7.21-149.05,18.92-222.41,35.08-62.35,14.02-133.15,30.81-181.01,76.41-27.54,26.22-21.38,61.64-24.22,95.93-6.13,78.51-7.27,158.81.96,237.21,3.45,32.88,5.89,65.57,10.38,98.29,26.21,183.22,95.93,369.94,230.65,501.11,15.26,14.86,33.74,30.79,51.59,42.36-35.75-.1-150.7,20.18-174.75,43.35-3.93,3.79-6.21,8.32-6.12,13.83.1,6.41,3.18,11.87,7.81,16.17,49.06,45.41,361.72,62.09,435.8,63.84,91.27,2.35,182.6.88,273.75-4.37,44.68-2.84,97.98-6.71,141.98-12.45,46.89-6.05,157.67-24.4,193.27-52.77.27-18.36-1.66-25.47-19.83-33.33-47.16-20.4-110.27-34.25-161.4-34.35,57.77-46.33,116.1-106.91,151.75-172.28,154.61-29.36,297.09-99.74,387.82-233.08,56.81-83.5,80.98-178.37,65.27-279.53ZM1524.54,1014.11c14.1-62.1,19.68-126.15,29.21-189.02,2.26-14.9,17.83-26.07,29.89-33.38,16.22-9.41,34.12-15.5,52.86-16.17,20.05.8,46.18,16.43,55.18,34.67,17.96,36.37,13.45,74.82.29,112.05-13.01,35.89-39.56,76-66.94,103.04-18.7,18.47-54.82,46.14-77.69,56.86-15.79,7.26-31.4,14.87-46.83,22.84,11.24-28.08,17.3-61.23,24.03-90.88Z" />
    <path class="st13"
      d="M572.49,1413.8s220.22,232.36,625.99,46.82c121.38-84.97,326-255.48,312.13-845.64,0,0-375.56,180.27-950.77,73.37-219.72-32.33-212.78-32.33-212.78-32.33,0,0-2.89,619.64,225.43,757.78Z" />
    <path class="st12"
      d="M1385.11,702.25s24.93,509.25-325.35,699.99c-91.91,62.43-253.17,108.09-487.27,11.56-74.56-84.39-209.35-255.97-219.12-609.76-4.57-119.7-6.3-148.02-6.3-148.02,0,0,276.76,77.93,582.1,66.19,126.89-4.92,179.13-4.49,257.17-19.44,0,0,93.07-1.31,198.85-9.47l-.08,8.95Z" />
    <path class="st4"
      d="M1385.11,702.25s24.93,509.25-325.35,699.99c-91.91,62.43-253.17,108.09-487.27,11.56-74.56-84.39-209.35-255.97-219.12-609.76-4.57-119.7-6.3-148.02-6.3-148.02,0,0,276.76,77.93,582.1,66.19,126.89-4.92,179.13-4.49,257.17-19.44,0,0,93.07-1.31,198.85-9.47l-.08,8.95Z" />
    <path class="st11"
      d="M323.94,614.98s-45.09,541.02,248.55,798.82c0,0-216.76-221.96-204.62-740.44,0,0,116.18,58.96,301.73,67.63l64.16-27.74s-346.23-36.99-409.81-98.26Z" />
    <path class="st14"
      d="M1511.28,649.66s-127.28,94.65-324.95,53.11c0,0,204.63-29.98,324.28-87.79l.67,34.68Z" />
    <path class="st10"
      d="M484.25,599.32s-69.94,28.58,80.34,48.83c150.28,20.24,414.09,33.65,619.75,7.87,205.66-25.78,223-43.7,231.09-56.7,8.09-13.01-335.25-100.63-580.33-79.36-245.08,21.27-350.86,79.36-350.86,79.36Z" />
    <path class="st3"
      d="M457.08,582.85l21.96,39.31s-26.59,16.18,67.05,0c91.33-16.18,293.36-111.56,670.94-22.83,64.3,17.05,139.3,9.24-42.27-40.03-108.45-31.93-233.31-55.05-420.58-26.15-187.28,28.9-297.1,49.71-297.1,49.71Z" />
    <path class="st2"
      d="M392.34,587.47s-6.94,20.81,86.7,34.68c26.59-17.34,291.07-127.55,793.04-49.71,116.76,23.12,135.26,42.54,135.26,42.54l41.05-20.21-36.42-65.1s-321.38-98.02-618.48-41.5c-297.1,56.53-388.43,32.25-401.14,99.3Z" />
    <path class="st1"
      d="M1813.11,919.25c-61.27,269.35-364.72,327.27-364.72,327.27l7.04-17.01,29.37-70.96c242.77-75.15,264.74-253.17,265.89-310.98-15.02-178.03-198.83-100.33-198.83-100.33v-77.02c249.7-72.16,276.29,144.98,261.26,249.03Z" />
    <path class="st6"
      d="M332.52,545.56s29.02-96.45,510.68-110.11c319.07-11.27,534.96,35.55,599.98,71.1,57.22,30.35,91.04,48.55-4.34,92.77-19.07-8.67-149.13-78.9-445.65-89.3-198.55-.87-403.17-7.8-587.84,89.3,0,0-73.7-14.74-72.83-53.76Z" />
    <path class="st5"
      d="M1443.18,506.55s-190.21-48.02-626.86-49.42c-395.08,23.41-483.8,88.44-483.8,88.44,0,0,9.14-63.29,269.45-97.11,190.08-18.21,228.15-22.93,464.02-11.46,180.38,9.73,313.03,32.27,377.19,69.55Z" />
    <path class="st9"
      d="M1754.15,983.99c-73.99,108.67-92.68,149.65-242.87,220.49-22.01,10.06-40.44,18.29-55.86,25.03l29.37-70.96c242.77-75.15,264.74-253.17,265.89-310.98-15.02-178.03-198.83-100.33-198.83-100.33v-44.63c20.22-13.99,57.82-26.34,126-14.57,53.18,12.71,173.4,98.26,76.3,295.94Z" />
    <path class="st0"
    d="M1243.35,916.6c-7.51-19.27-13.54-31.57-22.98-49.81,11.35-16.66,25.7-37.94,33.75-56.12,17.28-39.01-28.89-77.43-55.37-100.06-11.33-7.61-22.88-15.6-34.58-22.64-26.84-14.55-48.11-8.06-59.62-1.84l-3.72,2.55-6.31,4.31-.32.21-7.61,4.96c-7.15,4.73-14.22,9.58-21.18,14.58-7.67-3.13-17.86-6.96-25.01-10.71-3.22-.52-16.26-6.28-19.65-7.73l-12.16-50.29c-15.67-48.51-42.52-46.11-97.04-45.1-48.56.9-91.82-5.35-103.42,49.7-2.35,34.99-7.89,44.93-7.89,44.93l-13.28,5.42c-11.96,4.99-28.84,9.71-41.35,13.4-9-4.43-26.92-16.65-37.43-23.44-.71-.45-1.37-.88-2-1.29.05,0,.1.02.15.02-20.33-13.4-38.21-5.92-45.28-1.85-13.35,8.68-26.36,17.87-39.02,27.54-19.17,16.39-53.23,44.39-55.58,71-1.85,20.78,21.4,60.96,32.9,78.85-8.12,17.48-15.74,35.2-22.86,53.1-12.9,5.06-26.11,9.32-39.53,12.79-13.18,6.02-41.13,9.03-45.31,25.13-9.62,37.04-10.3,97.75.62,133.98,6.95,23.09,63.5,29.19,84.47,36.73,7.35,15.98,16.4,34.77,22.95,50.85-12.61,29.62-35.1,55.14-31.31,87,12.89,21.53,30.3,38.92,49.43,56.59,24.71,22.82,62.01,61.29,98.48,37.44,6.3-4.12,14.77-10.88,21.02-14.34l19.1-14.64c13.38,5.6,30.33,11.53,42.78,17.17.94,6.38,1.97,12.74,3.12,19.08.83,1.61,3,11.21,3.65,13.59,4.4,16.2,7.08,32.48,16.36,46.7,6.34,9.7,21.15,15.83,31.94,17.31,25.53,3.49,98.96,6.51,120.99,1.51,6.37-1.39,12.37-4.13,17.62-8,23.77-17.24,25.05-60.36,30.09-88.66l44.72-20.19c36.49,26.25,65,57.34,109.44,23.42,27.63-21.09,54.19-45.21,74.12-73.92,8.94-12.9,7.5-26.9,3.71-41.03-9.1-18.37-20.53-35.6-31.74-52.74,9.53-16.6,17.23-34.18,22.98-52.43,21.97-8.95,60.2-15.07,79.28-27.66.06-.15,4.48-6.17,5.04-7.12,5.39-8.95,6.04-13.45,7.31-23.27,1.86-23.07.08-47.14,1.26-68.6,4.24-77.52-37.87-64.45-95.7-86.38ZM930.67,1165.82c-81.05,7.98-153.2-51.33-161.06-132.4-7.85-81.07,51.58-153.12,132.66-160.83,80.89-7.7,152.74,51.56,160.57,132.44,7.83,80.87-51.31,152.82-132.17,160.79Z" />
  <path class="st2"
    d="M1339.05,1002.98c4.25-77.53-37.87-64.46-95.7-86.38-7.52-19.28-13.54-31.57-22.97-49.81,11.34-16.67,25.69-37.94,33.74-56.12,17.27-39-28.89-77.42-55.37-100.06-11.33-7.6-22.89-15.6-34.58-22.63-32.76-17.76-57.27-4.17-65.79,2,.3-.03.62-.07.91-.1l-12.7,8.29c-7.15,4.72-14.22,9.58-21.19,14.57-7.66-3.12-17.86-6.95-25.01-10.71-3.22-.52-16.25-6.28-19.65-7.73l-12.16-50.28c-15.67-48.51-42.51-46.11-97.04-45.09-48.56.9-91.82-5.35-103.42,49.69-2.35,34.99-7.89,44.94-7.89,44.94l-13.27,5.41c-11.97,5-28.86,9.71-41.36,13.4-9-4.42-26.92-16.64-37.43-23.44-.7-.45-1.37-.88-2-1.28.05,0,.09,0,.14.01-20.33-13.39-38.21-5.92-45.28-1.85-13.34,8.69-26.36,17.87-39.01,27.54-19.17,16.4-53.23,44.39-55.59,71-1.84,20.78,21.41,60.96,32.9,78.86-8.11,17.48-15.74,35.19-22.85,53.1-12.91,5.06-26.11,9.32-39.53,12.79-13.18,6.02-41.12,9.04-45.3,25.14-9.63,37.03-10.29,97.75.62,133.97,6.95,23.09,63.5,29.19,84.47,36.74,7.35,15.98,16.4,34.76,22.95,50.84-12.61,29.61-35.1,55.13-31.32,87,12.89,21.53,30.3,38.92,49.43,56.59,24.72,22.82,62.02,61.3,98.48,37.45,6.3-4.12,14.77-10.88,21.02-14.34l19.1-14.65c13.38,5.6,30.33,11.53,42.78,17.18.93,6.38,1.98,12.74,3.13,19.08.82,1.6,2.99,11.21,3.64,13.59,4.41,16.2,7.08,32.48,16.37,46.7,6.34,9.7,21.15,15.83,31.94,17.31,25.53,3.5,98.96,6.51,120.99,1.51,6.37-1.39,12.37-4.12,17.61-8,23.78-17.24,25.06-60.36,30.09-88.66l44.71-20.19c36.49,26.26,65,57.34,109.44,23.42,27.63-21.09,54.19-45.21,74.11-73.92,8.95-12.91,7.5-26.89,3.72-41.03-9.1-18.36-20.54-35.6-31.74-52.73,9.53-16.6,17.23-34.17,22.98-52.43,21.97-8.95,60.2-15.07,79.27-27.66.08-.16,4.48-6.18,5.06-7.13,5.39-8.95,6.04-13.45,7.3-23.27,1.87-23.07.08-47.14,1.25-68.6ZM1295.41,1072.21c-9.5,6.16-37.2,14.1-47.62,15.65-38.76,5.77-34.52,22.13-47.86,52.93-5.85,13.51-19.18,28.24-19.67,44.4l4.08,10.11c6.73,11.1,32.41,50.79,29.22,61.89-3.45,12.01-58.92,62.51-70.99,67.25-4.74,1.86-10.14.28-14.52-1.88-16.77-8.24-44.61-41.64-62.36-35.88-12.79,4.15-24.83,11.47-37.16,16.85-8.54,3.73-26.51,8.9-33.36,13.94-2.75,2.02-4.7,4.53-6.12,7.62-7.52,16.45-4.2,71.86-22.46,78.78-11.93,4.52-97.93,2.7-110.33-3.08-1.15-.54-1.05-.5-1.94-1.07-12.13-13.65-13.29-67.4-19.16-80.66-10.17-7.99-25.74-11.34-37.97-16.33-8.54-3.49-35.03-18.66-42.95-16.68-22.38,5.62-44.86,37.55-68.44,40.04-16.13-9.38-58.73-51.92-71.3-67.31-15.25-22.09,36.96-68.83,23.5-91.41-9.17-15.39-22.93-59.59-32.48-71.16l-3.53-1.66c-8.31-8.01-57.89-11.68-73.38-24.11-7.49-12.85-6.14-79.34-2.91-95.86,3.33-17.01,77.32-18.55,83.1-32.73,6.4-15.7,32.78-71.13,31.29-84.25-2.82-2.41-5.08-8.54-6.63-12.08-5.62-7.61-24.68-46.05-28.69-55.46,3.54-14.68,57.16-57.22,71.17-68.45,6.12-4.91,8.45-6.54,15.97-5.46,16.68,10.39,31.91,25.54,48.99,35.83,16.37,3.75,24.08-4.78,38.84-10.87,13.19-5.59,39.07-9.61,48.79-19.37,13.14-13.53,9.48-80.84,30.28-83.18,17.54-1.97,89.95-6.26,102.69,1.49,8.59,16.75,11.75,38.9,16.43,57.18,1.99,7.77,1.72,17.65,7.76,23.02,14.29,7.3,66.16,30.22,82.01,32,15.51,1.74,55.58-45.33,74.93-34.96,16.3,8.74,62.91,52.56,73.35,67.75.35,31.56-36.39,54.9-34.56,81.65-.09-1.28,34.43,76.4,35.66,78.07,16.78,10.6,61.37,15.75,80.09,28.3,6.63,15.01,5.14,83.87-1.71,99.16Z" />
  <path class="st7"
    d="M933.33,1398.78c-27.26,0-59.61-1.92-72.72-3.72-.25-.04-.58-.12-.94-.24-2.11-4.86-3.78-11.56-5.66-19.05-.84-3.33-1.7-6.78-2.68-10.4-.14-.55-.34-1.38-.57-2.32-1.03-4.2-1.88-7.63-2.79-10.67-.8-4.55-1.55-9.26-2.29-14.28-2.33-15.82-12.54-29.37-27.1-35.97-8.45-3.83-17.95-7.5-27.13-11.04-6.12-2.36-11.91-4.59-16.91-6.69-5.85-2.45-12.02-3.65-18.16-3.65-10.19,0-20.27,3.31-28.62,9.71l-16.79,12.88c-5,3.05-9.8,6.5-14.13,9.62-2.06,1.48-4.18,3.01-5.72,4.05-1.69-.51-5.45-2.03-11.69-6.42-8.36-5.88-17.2-14.13-25-21.41-1.63-1.52-3.21-2.99-4.75-4.41-14.04-12.97-25.1-23.99-33.69-35.4,2.06-7.18,6.98-16.21,12.42-26.21,4.68-8.6,9.99-18.36,14.52-29.01,4.91-11.54,5.01-24.55.28-36.17-5.44-13.35-12.04-27.52-18.43-41.23-1.84-3.95-3.64-7.82-5.35-11.53-5.27-11.46-14.93-20.32-26.81-24.59-7.84-2.82-17-5-26.7-7.32-7.85-1.87-22.36-5.33-31.06-8.63-4.63-23.69-4.81-58.64-.52-85.15,1.12-.35,2.19-.67,3.11-.95,4.77-1.45,9.67-2.94,14.61-4.89,14.12-3.78,28.08-8.36,41.56-13.65,12.11-4.75,21.72-14.31,26.53-26.4,6.79-17.09,14.13-34.14,21.81-50.67,6.78-14.61,5.62-31.67-3.09-45.23-14.36-22.35-22.79-41.22-25.03-49.46,1.26-2.29,4.18-6.74,10.65-13.62,7.96-8.47,17.73-16.8,25.58-23.5l1.46-1.25c9.96-7.57,20.25-14.89,30.67-21.8l.43.28c2.23,1.44,4.8,3.13,7.55,4.94,14.63,9.63,25.68,16.79,34.64,21.19,6.51,3.2,13.62,4.83,20.76,4.83,4.47,0,8.94-.64,13.3-1.92,1.58-.47,3.24-.95,4.94-1.45,12.59-3.68,28.24-8.25,41.04-13.58l13.11-5.35c9.9-4.04,18.12-11.32,23.33-20.66,6.77-12.16,11.29-32.59,13.45-60.76,1.06-4.03,2.12-5.82,2.45-6.32.63-.32,3.1-1.39,9.28-2.17,8.21-1.03,18.91-1.06,30.24-1.1,5.05-.02,10.27-.03,15.68-.13l5.97-.12c6.61-.13,12.86-.26,18.4-.26,14.7,0,20.17,1.01,22.15,1.65.71,1.03,2.36,3.8,4.39,9.74l11.71,48.4c3.5,14.46,13.63,26.41,27.32,32.23.41.17.98.42,1.67.72,8.29,3.58,14.19,6.02,19.11,7.66,6.51,3.11,13.4,5.87,19.62,8.35,1.7.68,3.35,1.34,4.89,1.96,5.73,2.34,11.76,3.49,17.76,3.49,9.7,0,19.31-3,27.43-8.83,6.23-4.47,12.82-9.01,19.58-13.48l7.47-4.87c.15-.1,1.03-.69,1.17-.78l7.23-4.94c1.17-.44,2.38-.67,3.6-.67,3.07,0,6.51,1.39,9.08,2.7,8.17,4.96,16.47,10.56,25.23,16.48,1.36.92,2.71,1.83,4.06,2.74,9.45,8.07,21.04,18.02,29.78,28.11,7.99,9.22,10.12,14.51,10.66,16.33-6.78,14.84-20.76,35.38-29.19,47.75-9.73,14.28-10.84,32.75-2.9,48.09,9.38,18.13,14.37,28.43,20.92,45.26,4.83,12.41,14.7,22.18,27.15,26.9,15.92,6.04,30.63,9.78,42.44,12.79,7.56,1.92,17.55,4.47,22.08,6.49.62,2.63,1.53,8.75.89,20.55-.6,11.03-.53,22.14-.46,32.89.08,11.75.15,22.88-.61,33.24-8.09,2.94-19.3,6.06-26.96,8.2-12.13,3.38-24.68,6.88-35.63,11.34-12.97,5.28-22.91,16.07-27.11,29.42-4.72,15-11.09,29.52-18.91,43.14-8.81,15.35-8.26,34.34,1.43,49.15l1.7,2.6c9.19,14.04,17.92,27.38,24.96,40.78.04.22.08.42.11.61-14.3,19.8-34.64,39.66-62.04,60.57-5.64,4.31-8.84,5.24-9.33,5.24-.02,0-1.89-.08-6.88-2.83-6.59-3.63-14.62-9.7-23.12-16.13-4.5-3.4-9.15-6.92-14.11-10.49-8.14-5.86-17.77-8.86-27.47-8.86-6.57,0-13.16,1.37-19.35,4.17l-44.72,20.19c-14.14,6.39-24.22,19.33-26.95,34.61-1.08,6.03-1.96,12.36-2.82,18.48-1.42,10.14-2.9,20.63-5.14,29.33-1.73,6.71-3.31,9.97-4.08,11.28-1.35.24-9.24,1.44-31.27,1.44ZM916.41,824.89c-6.17,0-12.42.3-18.59.89-51.73,4.92-98.43,29.71-131.5,69.79-33.07,40.09-48.52,90.65-43.51,142.38,9.7,100.12,92.79,175.62,193.26,175.62,6.38,0,12.84-.32,19.21-.95,106.47-10.49,184.69-105.65,174.38-212.12-9.7-100.11-92.77-175.61-193.24-175.61Z" />
  <path class="st8"
    d="M1119.4,909.18c-54.82-100.43-174.36-146.32-282.3-108.36-107.93,37.95-172.45,148.55-152.36,261.2,16.24,91,84.65,163.84,174.46,185.76,89.81,21.91,184.08-11.24,240.41-84.54,56.32-73.3,64.09-172.93,19.79-254.06ZM769.62,1033.42c-7.85-81.07,51.57-153.12,132.66-160.83,80.88-7.7,152.73,51.56,160.57,132.44,7.83,80.88-51.31,152.82-132.18,160.79-81.05,7.98-153.2-51.33-161.05-132.4Z" />
  <path class="st2"
    d="M1103.25,1004c-2.07-9.79-2.39-17.66-5.23-28.59-10.74-41.37-28.15-66.4-58.06-95.44-28.15-23.34-48.22-32.55-82.54-43.16-44.43-7.62-69.19-6.3-112.02,9.06-78.84,38.02-110.95,85.21-117.5,171.85,1.29,23.89,2.75,41.25,11.17,64.05,30.15,81.58,105.25,127.87,191.5,122.25,5.92-.37,11.82-.98,17.69-1.84,73.59-9.11,133.9-67.78,150.72-138.9,4.92-20.79,4.72-38.22,4.29-59.27ZM930.67,1165.82c-81.05,7.98-153.2-51.33-161.05-132.4-7.85-81.07,51.57-153.12,132.66-160.83,80.88-7.7,152.73,51.56,160.57,132.44,7.83,80.88-51.31,152.82-132.18,160.79Z" />
  </g>
</svg>